<mxfile host="app.diagrams.net" modified="2023-06-05T09:31:00.790Z" agent="Mozilla/5.0 (Windows NT 10.0; Win64; x64) AppleWebKit/537.36 (KHTML, like Gecko) Chrome/113.0.0.0 Safari/537.36 Edg/113.0.1774.57" etag="mYmuyddENz0AYnPM8tv7" version="21.3.7" type="device">
  <diagram name="第 1 页" id="IJ6mtE8mXL97w89WOloE">
    <mxGraphModel dx="1877" dy="1806" grid="1" gridSize="10" guides="1" tooltips="1" connect="1" arrows="1" fold="1" page="1" pageScale="1" pageWidth="827" pageHeight="1169" math="0" shadow="0">
      <root>
        <mxCell id="0" />
        <mxCell id="1" parent="0" />
        <mxCell id="1t1uXv_9IBnylGE5I8BE-41" value="" style="rounded=0;whiteSpace=wrap;html=1;" parent="1" vertex="1">
          <mxGeometry x="-380" y="-20" width="960" height="1960" as="geometry" />
        </mxCell>
        <mxCell id="T3SigYvGde6pG3R6w0Rn-3" style="edgeStyle=orthogonalEdgeStyle;rounded=0;orthogonalLoop=1;jettySize=auto;html=1;entryX=0.5;entryY=0;entryDx=0;entryDy=0;" parent="1" source="T3SigYvGde6pG3R6w0Rn-1" target="T3SigYvGde6pG3R6w0Rn-2" edge="1">
          <mxGeometry relative="1" as="geometry" />
        </mxCell>
        <mxCell id="T3SigYvGde6pG3R6w0Rn-1" value="起始" style="strokeWidth=2;html=1;shape=mxgraph.flowchart.start_2;whiteSpace=wrap;fontSize=20;fontStyle=1" parent="1" vertex="1">
          <mxGeometry x="40" width="120" height="40" as="geometry" />
        </mxCell>
        <mxCell id="T3SigYvGde6pG3R6w0Rn-5" style="edgeStyle=orthogonalEdgeStyle;rounded=0;orthogonalLoop=1;jettySize=auto;html=1;entryX=0.5;entryY=0;entryDx=0;entryDy=0;entryPerimeter=0;" parent="1" source="T3SigYvGde6pG3R6w0Rn-2" target="T3SigYvGde6pG3R6w0Rn-10" edge="1">
          <mxGeometry relative="1" as="geometry">
            <mxPoint x="99.99999999999989" y="200" as="targetPoint" />
          </mxGeometry>
        </mxCell>
        <mxCell id="T3SigYvGde6pG3R6w0Rn-2" value="於瀏覽器中&lt;br&gt;輸入 www.google.com&lt;br&gt;進行瀏覽" style="rounded=1;whiteSpace=wrap;html=1;absoluteArcSize=1;arcSize=14;strokeWidth=2;" parent="1" vertex="1">
          <mxGeometry y="80" width="200" height="80" as="geometry" />
        </mxCell>
        <mxCell id="T3SigYvGde6pG3R6w0Rn-16" style="edgeStyle=orthogonalEdgeStyle;rounded=0;orthogonalLoop=1;jettySize=auto;html=1;exitX=1;exitY=0.5;exitDx=0;exitDy=0;exitPerimeter=0;entryX=0;entryY=0.5;entryDx=0;entryDy=0;entryPerimeter=0;" parent="1" source="T3SigYvGde6pG3R6w0Rn-10" target="T3SigYvGde6pG3R6w0Rn-15" edge="1">
          <mxGeometry relative="1" as="geometry" />
        </mxCell>
        <mxCell id="T3SigYvGde6pG3R6w0Rn-18" style="edgeStyle=orthogonalEdgeStyle;rounded=0;orthogonalLoop=1;jettySize=auto;html=1;entryX=0.5;entryY=0;entryDx=0;entryDy=0;entryPerimeter=0;" parent="1" source="T3SigYvGde6pG3R6w0Rn-10" target="T3SigYvGde6pG3R6w0Rn-17" edge="1">
          <mxGeometry relative="1" as="geometry" />
        </mxCell>
        <mxCell id="T3SigYvGde6pG3R6w0Rn-10" value="瀏覽器確認自身&lt;br&gt;是否存在對應 DNS 暫存資料" style="strokeWidth=2;html=1;shape=mxgraph.flowchart.decision;whiteSpace=wrap;" parent="1" vertex="1">
          <mxGeometry y="200" width="200" height="120" as="geometry" />
        </mxCell>
        <mxCell id="T3SigYvGde6pG3R6w0Rn-19" style="edgeStyle=orthogonalEdgeStyle;rounded=0;orthogonalLoop=1;jettySize=auto;html=1;entryX=0.5;entryY=0;entryDx=0;entryDy=0;entryPerimeter=0;" parent="1" source="T3SigYvGde6pG3R6w0Rn-15" target="T3SigYvGde6pG3R6w0Rn-17" edge="1">
          <mxGeometry relative="1" as="geometry">
            <Array as="points">
              <mxPoint x="380" y="360" />
              <mxPoint x="100" y="360" />
            </Array>
          </mxGeometry>
        </mxCell>
        <mxCell id="1t1uXv_9IBnylGE5I8BE-36" style="edgeStyle=orthogonalEdgeStyle;rounded=0;orthogonalLoop=1;jettySize=auto;html=1;entryX=0.5;entryY=0;entryDx=0;entryDy=0;" parent="1" source="T3SigYvGde6pG3R6w0Rn-15" target="1t1uXv_9IBnylGE5I8BE-30" edge="1">
          <mxGeometry relative="1" as="geometry">
            <Array as="points">
              <mxPoint x="560" y="260" />
              <mxPoint x="560" y="1600" />
              <mxPoint x="100" y="1600" />
            </Array>
          </mxGeometry>
        </mxCell>
        <mxCell id="T3SigYvGde6pG3R6w0Rn-15" value="是否過期" style="strokeWidth=2;html=1;shape=mxgraph.flowchart.decision;whiteSpace=wrap;" parent="1" vertex="1">
          <mxGeometry x="280" y="200" width="200" height="120" as="geometry" />
        </mxCell>
        <mxCell id="T3SigYvGde6pG3R6w0Rn-25" style="edgeStyle=orthogonalEdgeStyle;rounded=0;orthogonalLoop=1;jettySize=auto;html=1;entryX=0.5;entryY=0;entryDx=0;entryDy=0;" parent="1" source="T3SigYvGde6pG3R6w0Rn-17" target="T3SigYvGde6pG3R6w0Rn-24" edge="1">
          <mxGeometry relative="1" as="geometry" />
        </mxCell>
        <mxCell id="1t1uXv_9IBnylGE5I8BE-37" style="edgeStyle=orthogonalEdgeStyle;rounded=0;orthogonalLoop=1;jettySize=auto;html=1;entryX=0.5;entryY=0;entryDx=0;entryDy=0;" parent="1" source="T3SigYvGde6pG3R6w0Rn-17" target="1t1uXv_9IBnylGE5I8BE-30" edge="1">
          <mxGeometry relative="1" as="geometry">
            <Array as="points">
              <mxPoint x="560" y="460" />
              <mxPoint x="560" y="1600" />
              <mxPoint x="100" y="1600" />
            </Array>
          </mxGeometry>
        </mxCell>
        <mxCell id="T3SigYvGde6pG3R6w0Rn-17" value="讀取 hosts 檔案&lt;br&gt;確認是否有該域名的 IP 位址" style="strokeWidth=2;html=1;shape=mxgraph.flowchart.decision;whiteSpace=wrap;" parent="1" vertex="1">
          <mxGeometry y="400" width="200" height="120" as="geometry" />
        </mxCell>
        <mxCell id="T3SigYvGde6pG3R6w0Rn-20" value="不存在資料" style="text;html=1;strokeColor=none;fillColor=none;align=left;verticalAlign=middle;whiteSpace=wrap;rounded=0;" parent="1" vertex="1">
          <mxGeometry x="100" y="320" width="80" height="40" as="geometry" />
        </mxCell>
        <mxCell id="T3SigYvGde6pG3R6w0Rn-21" value="已過期" style="text;html=1;strokeColor=none;fillColor=none;align=left;verticalAlign=middle;whiteSpace=wrap;rounded=0;" parent="1" vertex="1">
          <mxGeometry x="380" y="320" width="80" height="40" as="geometry" />
        </mxCell>
        <mxCell id="T3SigYvGde6pG3R6w0Rn-22" value="存在資料" style="text;html=1;strokeColor=none;fillColor=none;align=center;verticalAlign=bottom;whiteSpace=wrap;rounded=0;" parent="1" vertex="1">
          <mxGeometry x="200" y="230" width="80" height="30" as="geometry" />
        </mxCell>
        <mxCell id="1t1uXv_9IBnylGE5I8BE-3" style="edgeStyle=orthogonalEdgeStyle;rounded=0;orthogonalLoop=1;jettySize=auto;html=1;entryX=0.5;entryY=0;entryDx=0;entryDy=0;" parent="1" source="T3SigYvGde6pG3R6w0Rn-24" target="1t1uXv_9IBnylGE5I8BE-2" edge="1">
          <mxGeometry relative="1" as="geometry" />
        </mxCell>
        <mxCell id="T3SigYvGde6pG3R6w0Rn-24" value="向設置的 DNS 伺服器&lt;br&gt;發送請求" style="rounded=1;whiteSpace=wrap;html=1;absoluteArcSize=1;arcSize=14;strokeWidth=2;" parent="1" vertex="1">
          <mxGeometry y="560" width="200" height="40" as="geometry" />
        </mxCell>
        <mxCell id="T3SigYvGde6pG3R6w0Rn-26" value="不存在資料" style="text;html=1;strokeColor=none;fillColor=none;align=left;verticalAlign=middle;whiteSpace=wrap;rounded=0;" parent="1" vertex="1">
          <mxGeometry x="100" y="520" width="80" height="40" as="geometry" />
        </mxCell>
        <mxCell id="1t1uXv_9IBnylGE5I8BE-15" style="edgeStyle=orthogonalEdgeStyle;rounded=0;orthogonalLoop=1;jettySize=auto;html=1;" parent="1" source="1t1uXv_9IBnylGE5I8BE-2" target="1t1uXv_9IBnylGE5I8BE-4" edge="1">
          <mxGeometry relative="1" as="geometry" />
        </mxCell>
        <mxCell id="1t1uXv_9IBnylGE5I8BE-2" value="DNS Resolver&lt;br&gt;轉送請求" style="rounded=1;whiteSpace=wrap;html=1;absoluteArcSize=1;arcSize=14;strokeWidth=2;" parent="1" vertex="1">
          <mxGeometry y="640" width="200" height="80" as="geometry" />
        </mxCell>
        <mxCell id="1t1uXv_9IBnylGE5I8BE-18" style="edgeStyle=orthogonalEdgeStyle;rounded=0;orthogonalLoop=1;jettySize=auto;html=1;entryX=0.5;entryY=0;entryDx=0;entryDy=0;" parent="1" source="1t1uXv_9IBnylGE5I8BE-4" target="1t1uXv_9IBnylGE5I8BE-17" edge="1">
          <mxGeometry relative="1" as="geometry" />
        </mxCell>
        <mxCell id="1t1uXv_9IBnylGE5I8BE-4" value="DNS Root Name Server" style="rounded=1;whiteSpace=wrap;html=1;absoluteArcSize=1;arcSize=14;strokeWidth=2;" parent="1" vertex="1">
          <mxGeometry y="760" width="200" height="80" as="geometry" />
        </mxCell>
        <mxCell id="1t1uXv_9IBnylGE5I8BE-9" value="回應 .com TLD" style="text;html=1;strokeColor=none;fillColor=none;align=left;verticalAlign=middle;whiteSpace=wrap;rounded=0;" parent="1" vertex="1">
          <mxGeometry x="100" y="840" width="120" height="40" as="geometry" />
        </mxCell>
        <mxCell id="1t1uXv_9IBnylGE5I8BE-21" style="edgeStyle=orthogonalEdgeStyle;rounded=0;orthogonalLoop=1;jettySize=auto;html=1;entryX=0.5;entryY=0;entryDx=0;entryDy=0;" parent="1" source="1t1uXv_9IBnylGE5I8BE-10" target="1t1uXv_9IBnylGE5I8BE-20" edge="1">
          <mxGeometry relative="1" as="geometry" />
        </mxCell>
        <mxCell id="1t1uXv_9IBnylGE5I8BE-10" value="Top-level Domain Server" style="rounded=1;whiteSpace=wrap;html=1;absoluteArcSize=1;arcSize=14;strokeWidth=2;" parent="1" vertex="1">
          <mxGeometry y="1000" width="200" height="80" as="geometry" />
        </mxCell>
        <mxCell id="1t1uXv_9IBnylGE5I8BE-14" value="回應 google.com IP 位址" style="text;html=1;strokeColor=none;fillColor=none;align=left;verticalAlign=middle;whiteSpace=wrap;rounded=0;" parent="1" vertex="1">
          <mxGeometry x="100" y="1080" width="160" height="40" as="geometry" />
        </mxCell>
        <mxCell id="1t1uXv_9IBnylGE5I8BE-19" style="edgeStyle=orthogonalEdgeStyle;rounded=0;orthogonalLoop=1;jettySize=auto;html=1;entryX=0.5;entryY=0;entryDx=0;entryDy=0;" parent="1" source="1t1uXv_9IBnylGE5I8BE-17" target="1t1uXv_9IBnylGE5I8BE-10" edge="1">
          <mxGeometry relative="1" as="geometry" />
        </mxCell>
        <mxCell id="1t1uXv_9IBnylGE5I8BE-17" value="DNS Resolver&lt;br&gt;再次轉送請求" style="rounded=1;whiteSpace=wrap;html=1;absoluteArcSize=1;arcSize=14;strokeWidth=2;" parent="1" vertex="1">
          <mxGeometry y="880" width="200" height="80" as="geometry" />
        </mxCell>
        <mxCell id="1t1uXv_9IBnylGE5I8BE-23" style="edgeStyle=orthogonalEdgeStyle;rounded=0;orthogonalLoop=1;jettySize=auto;html=1;entryX=0.5;entryY=0;entryDx=0;entryDy=0;" parent="1" source="1t1uXv_9IBnylGE5I8BE-20" target="1t1uXv_9IBnylGE5I8BE-22" edge="1">
          <mxGeometry relative="1" as="geometry" />
        </mxCell>
        <mxCell id="1t1uXv_9IBnylGE5I8BE-20" value="DNS Resolver&lt;br&gt;再次轉送請求" style="rounded=1;whiteSpace=wrap;html=1;absoluteArcSize=1;arcSize=14;strokeWidth=2;" parent="1" vertex="1">
          <mxGeometry y="1120" width="200" height="80" as="geometry" />
        </mxCell>
        <mxCell id="DrEK0OwsmpSfBRAfVQsn-43" style="edgeStyle=orthogonalEdgeStyle;rounded=0;orthogonalLoop=1;jettySize=auto;html=1;entryX=0.5;entryY=0;entryDx=0;entryDy=0;entryPerimeter=0;" edge="1" parent="1" source="1t1uXv_9IBnylGE5I8BE-22" target="DrEK0OwsmpSfBRAfVQsn-41">
          <mxGeometry relative="1" as="geometry" />
        </mxCell>
        <mxCell id="1t1uXv_9IBnylGE5I8BE-22" value="google.com 的 Name Server&lt;br&gt;找尋 DNS A Record 的資料" style="rounded=1;whiteSpace=wrap;html=1;absoluteArcSize=1;arcSize=14;strokeWidth=2;" parent="1" vertex="1">
          <mxGeometry y="1240" width="200" height="80" as="geometry" />
        </mxCell>
        <mxCell id="1t1uXv_9IBnylGE5I8BE-26" value="回應 www.google.com IP 位址" style="text;html=1;strokeColor=none;fillColor=none;align=left;verticalAlign=middle;whiteSpace=wrap;rounded=0;" parent="1" vertex="1">
          <mxGeometry x="100" y="1440" width="200" height="40" as="geometry" />
        </mxCell>
        <mxCell id="1t1uXv_9IBnylGE5I8BE-31" style="edgeStyle=orthogonalEdgeStyle;rounded=0;orthogonalLoop=1;jettySize=auto;html=1;entryX=0.5;entryY=0;entryDx=0;entryDy=0;" parent="1" source="1t1uXv_9IBnylGE5I8BE-29" target="1t1uXv_9IBnylGE5I8BE-30" edge="1">
          <mxGeometry relative="1" as="geometry" />
        </mxCell>
        <mxCell id="1t1uXv_9IBnylGE5I8BE-29" value="DNS Resolver&lt;br&gt;回應使用者的請求" style="rounded=1;whiteSpace=wrap;html=1;absoluteArcSize=1;arcSize=14;strokeWidth=2;" parent="1" vertex="1">
          <mxGeometry y="1480" width="200" height="80" as="geometry" />
        </mxCell>
        <mxCell id="1t1uXv_9IBnylGE5I8BE-34" style="edgeStyle=orthogonalEdgeStyle;rounded=0;orthogonalLoop=1;jettySize=auto;html=1;entryX=0.5;entryY=0;entryDx=0;entryDy=0;" parent="1" source="1t1uXv_9IBnylGE5I8BE-30" target="1t1uXv_9IBnylGE5I8BE-33" edge="1">
          <mxGeometry relative="1" as="geometry" />
        </mxCell>
        <mxCell id="1t1uXv_9IBnylGE5I8BE-30" value="瀏覽器&lt;br&gt;經由 IP 發送 HTTP 請求" style="rounded=1;whiteSpace=wrap;html=1;absoluteArcSize=1;arcSize=14;strokeWidth=2;" parent="1" vertex="1">
          <mxGeometry y="1640" width="200" height="80" as="geometry" />
        </mxCell>
        <mxCell id="1t1uXv_9IBnylGE5I8BE-32" value="回應 www.google.com IP 位址" style="text;html=1;strokeColor=none;fillColor=none;align=left;verticalAlign=middle;whiteSpace=wrap;rounded=0;" parent="1" vertex="1">
          <mxGeometry x="100" y="1560" width="200" height="40" as="geometry" />
        </mxCell>
        <mxCell id="DrEK0OwsmpSfBRAfVQsn-3" style="edgeStyle=orthogonalEdgeStyle;rounded=0;orthogonalLoop=1;jettySize=auto;html=1;entryX=0.5;entryY=0;entryDx=0;entryDy=0;entryPerimeter=0;" edge="1" parent="1" source="1t1uXv_9IBnylGE5I8BE-33" target="DrEK0OwsmpSfBRAfVQsn-2">
          <mxGeometry relative="1" as="geometry" />
        </mxCell>
        <mxCell id="1t1uXv_9IBnylGE5I8BE-33" value="www.google.com 的 IP 位址&lt;br&gt;回傳頁面內容" style="rounded=1;whiteSpace=wrap;html=1;absoluteArcSize=1;arcSize=14;strokeWidth=2;" parent="1" vertex="1">
          <mxGeometry y="1760" width="200" height="80" as="geometry" />
        </mxCell>
        <mxCell id="1t1uXv_9IBnylGE5I8BE-39" value="尚未過期" style="text;html=1;strokeColor=none;fillColor=none;align=center;verticalAlign=bottom;whiteSpace=wrap;rounded=0;" parent="1" vertex="1">
          <mxGeometry x="480" y="230" width="80" height="30" as="geometry" />
        </mxCell>
        <mxCell id="1t1uXv_9IBnylGE5I8BE-40" value="存在資料" style="text;html=1;strokeColor=none;fillColor=none;align=center;verticalAlign=bottom;whiteSpace=wrap;rounded=0;" parent="1" vertex="1">
          <mxGeometry x="201" y="430" width="80" height="30" as="geometry" />
        </mxCell>
        <mxCell id="DrEK0OwsmpSfBRAfVQsn-2" value="結束" style="strokeWidth=2;html=1;shape=mxgraph.flowchart.start_2;whiteSpace=wrap;fontSize=20;fontStyle=1" vertex="1" parent="1">
          <mxGeometry x="40" y="1880" width="120" height="40" as="geometry" />
        </mxCell>
        <mxCell id="DrEK0OwsmpSfBRAfVQsn-4" value="" style="strokeWidth=2;html=1;shape=mxgraph.flowchart.annotation_2;align=left;labelPosition=right;pointerEvents=1;rotation=-180;" vertex="1" parent="1">
          <mxGeometry x="-60" y="400" width="40" height="120" as="geometry" />
        </mxCell>
        <mxCell id="DrEK0OwsmpSfBRAfVQsn-5" value="" style="rounded=1;whiteSpace=wrap;html=1;absoluteArcSize=1;arcSize=14;strokeWidth=2;align=left;" vertex="1" parent="1">
          <mxGeometry x="-360" y="400" width="280" height="120" as="geometry" />
        </mxCell>
        <mxCell id="DrEK0OwsmpSfBRAfVQsn-6" value="hosts 檔案存放位置" style="text;html=1;strokeColor=none;fillColor=none;align=center;verticalAlign=middle;whiteSpace=wrap;rounded=0;fontSize=16;" vertex="1" parent="1">
          <mxGeometry x="-360" y="400" width="280" height="30" as="geometry" />
        </mxCell>
        <mxCell id="DrEK0OwsmpSfBRAfVQsn-7" value="&lt;div&gt;Win:&amp;nbsp;&lt;/div&gt;&lt;div&gt;C:\Windows\System32\drivers\etc&lt;/div&gt;" style="text;html=1;strokeColor=none;fillColor=none;align=left;verticalAlign=middle;whiteSpace=wrap;rounded=0;" vertex="1" parent="1">
          <mxGeometry x="-350" y="430" width="260" height="30" as="geometry" />
        </mxCell>
        <mxCell id="DrEK0OwsmpSfBRAfVQsn-8" value="&lt;div&gt;Linux:&amp;nbsp;&lt;/div&gt;&lt;div&gt;/etc/hosts&lt;br&gt;&lt;/div&gt;" style="text;html=1;strokeColor=none;fillColor=none;align=left;verticalAlign=middle;whiteSpace=wrap;rounded=0;" vertex="1" parent="1">
          <mxGeometry x="-350" y="475" width="260" height="30" as="geometry" />
        </mxCell>
        <mxCell id="DrEK0OwsmpSfBRAfVQsn-9" value="" style="strokeWidth=2;html=1;shape=mxgraph.flowchart.annotation_2;align=left;labelPosition=right;pointerEvents=1;rotation=-180;" vertex="1" parent="1">
          <mxGeometry x="-60" y="200" width="40" height="120" as="geometry" />
        </mxCell>
        <mxCell id="DrEK0OwsmpSfBRAfVQsn-10" value="" style="rounded=1;whiteSpace=wrap;html=1;absoluteArcSize=1;arcSize=14;strokeWidth=2;align=center;" vertex="1" parent="1">
          <mxGeometry x="-360" y="200" width="280" height="120" as="geometry" />
        </mxCell>
        <mxCell id="DrEK0OwsmpSfBRAfVQsn-14" value="&lt;div&gt;Edge 瀏覽器查閱位址：&amp;nbsp;&lt;/div&gt;&lt;div&gt;edge://net-internals/#dns&lt;/div&gt;" style="text;html=1;strokeColor=none;fillColor=none;align=left;verticalAlign=middle;whiteSpace=wrap;rounded=0;" vertex="1" parent="1">
          <mxGeometry x="-350" y="220" width="260" height="30" as="geometry" />
        </mxCell>
        <mxCell id="DrEK0OwsmpSfBRAfVQsn-15" value="&lt;div&gt;Chrome 瀏覽器瀏覽位址：&amp;nbsp;&lt;/div&gt;&lt;div&gt;chrome://net-internals/#dns&lt;/div&gt;" style="text;html=1;strokeColor=none;fillColor=none;align=left;verticalAlign=middle;whiteSpace=wrap;rounded=0;" vertex="1" parent="1">
          <mxGeometry x="-350" y="270" width="260" height="30" as="geometry" />
        </mxCell>
        <mxCell id="DrEK0OwsmpSfBRAfVQsn-16" value="" style="strokeWidth=2;html=1;shape=mxgraph.flowchart.annotation_2;align=left;labelPosition=right;pointerEvents=1;rotation=-180;" vertex="1" parent="1">
          <mxGeometry x="-60" y="760" width="40" height="440" as="geometry" />
        </mxCell>
        <mxCell id="DrEK0OwsmpSfBRAfVQsn-22" style="edgeStyle=orthogonalEdgeStyle;rounded=0;orthogonalLoop=1;jettySize=auto;html=1;entryX=0.5;entryY=0;entryDx=0;entryDy=0;" edge="1" parent="1" source="DrEK0OwsmpSfBRAfVQsn-19" target="DrEK0OwsmpSfBRAfVQsn-20">
          <mxGeometry relative="1" as="geometry">
            <Array as="points">
              <mxPoint x="-220" y="860" />
              <mxPoint x="-140" y="860" />
            </Array>
          </mxGeometry>
        </mxCell>
        <mxCell id="DrEK0OwsmpSfBRAfVQsn-23" style="edgeStyle=orthogonalEdgeStyle;rounded=0;orthogonalLoop=1;jettySize=auto;html=1;entryX=0.5;entryY=0;entryDx=0;entryDy=0;exitX=0.5;exitY=1;exitDx=0;exitDy=0;" edge="1" parent="1" source="DrEK0OwsmpSfBRAfVQsn-19" target="DrEK0OwsmpSfBRAfVQsn-21">
          <mxGeometry relative="1" as="geometry">
            <Array as="points">
              <mxPoint x="-220" y="860" />
              <mxPoint x="-300" y="860" />
            </Array>
          </mxGeometry>
        </mxCell>
        <mxCell id="DrEK0OwsmpSfBRAfVQsn-19" value="Root Name Server&lt;br&gt;（以樹狀目錄管理）" style="rounded=1;whiteSpace=wrap;html=1;absoluteArcSize=1;arcSize=14;strokeWidth=2;" vertex="1" parent="1">
          <mxGeometry x="-360" y="760" width="280" height="80" as="geometry" />
        </mxCell>
        <mxCell id="DrEK0OwsmpSfBRAfVQsn-26" style="edgeStyle=orthogonalEdgeStyle;rounded=0;orthogonalLoop=1;jettySize=auto;html=1;entryX=0.5;entryY=0;entryDx=0;entryDy=0;" edge="1" parent="1" source="DrEK0OwsmpSfBRAfVQsn-20" target="DrEK0OwsmpSfBRAfVQsn-25">
          <mxGeometry relative="1" as="geometry" />
        </mxCell>
        <mxCell id="DrEK0OwsmpSfBRAfVQsn-28" style="edgeStyle=orthogonalEdgeStyle;rounded=0;orthogonalLoop=1;jettySize=auto;html=1;entryX=0.5;entryY=0;entryDx=0;entryDy=0;" edge="1" parent="1" source="DrEK0OwsmpSfBRAfVQsn-20" target="DrEK0OwsmpSfBRAfVQsn-27">
          <mxGeometry relative="1" as="geometry">
            <Array as="points">
              <mxPoint x="-140" y="980" />
              <mxPoint x="-300" y="980" />
            </Array>
          </mxGeometry>
        </mxCell>
        <mxCell id="DrEK0OwsmpSfBRAfVQsn-20" value=".com&lt;br&gt;TLD Server" style="rounded=1;whiteSpace=wrap;html=1;absoluteArcSize=1;arcSize=14;strokeWidth=2;" vertex="1" parent="1">
          <mxGeometry x="-200" y="880" width="120" height="80" as="geometry" />
        </mxCell>
        <mxCell id="DrEK0OwsmpSfBRAfVQsn-30" style="edgeStyle=orthogonalEdgeStyle;rounded=0;orthogonalLoop=1;jettySize=auto;html=1;dashed=1;endArrow=none;endFill=0;strokeWidth=1;" edge="1" parent="1" source="DrEK0OwsmpSfBRAfVQsn-21">
          <mxGeometry relative="1" as="geometry">
            <mxPoint x="-360" y="970" as="targetPoint" />
            <Array as="points">
              <mxPoint x="-300" y="970" />
            </Array>
          </mxGeometry>
        </mxCell>
        <mxCell id="DrEK0OwsmpSfBRAfVQsn-21" value=".net&lt;br&gt;TLD Server" style="rounded=1;whiteSpace=wrap;html=1;absoluteArcSize=1;arcSize=14;strokeWidth=2;" vertex="1" parent="1">
          <mxGeometry x="-360" y="880" width="120" height="80" as="geometry" />
        </mxCell>
        <mxCell id="DrEK0OwsmpSfBRAfVQsn-24" value="" style="endArrow=none;dashed=1;html=1;strokeWidth=1;rounded=0;" edge="1" parent="1">
          <mxGeometry width="50" height="50" relative="1" as="geometry">
            <mxPoint x="-360" y="860.5" as="sourcePoint" />
            <mxPoint x="-300" y="861" as="targetPoint" />
          </mxGeometry>
        </mxCell>
        <mxCell id="DrEK0OwsmpSfBRAfVQsn-34" style="edgeStyle=orthogonalEdgeStyle;rounded=0;orthogonalLoop=1;jettySize=auto;html=1;entryX=0.5;entryY=0;entryDx=0;entryDy=0;exitX=0.5;exitY=1;exitDx=0;exitDy=0;" edge="1" parent="1" source="DrEK0OwsmpSfBRAfVQsn-25" target="DrEK0OwsmpSfBRAfVQsn-31">
          <mxGeometry relative="1" as="geometry">
            <Array as="points">
              <mxPoint x="-140" y="1090" />
              <mxPoint x="-140" y="1090" />
            </Array>
          </mxGeometry>
        </mxCell>
        <mxCell id="DrEK0OwsmpSfBRAfVQsn-35" style="edgeStyle=orthogonalEdgeStyle;rounded=0;orthogonalLoop=1;jettySize=auto;html=1;entryX=0.5;entryY=0;entryDx=0;entryDy=0;exitX=0.5;exitY=1;exitDx=0;exitDy=0;" edge="1" parent="1" source="DrEK0OwsmpSfBRAfVQsn-25" target="DrEK0OwsmpSfBRAfVQsn-32">
          <mxGeometry relative="1" as="geometry">
            <Array as="points">
              <mxPoint x="-140" y="1100" />
              <mxPoint x="-300" y="1100" />
            </Array>
          </mxGeometry>
        </mxCell>
        <mxCell id="DrEK0OwsmpSfBRAfVQsn-25" value="google.com&lt;br&gt;Name Server" style="rounded=1;whiteSpace=wrap;html=1;absoluteArcSize=1;arcSize=14;strokeWidth=2;" vertex="1" parent="1">
          <mxGeometry x="-200" y="999.98" width="120" height="80" as="geometry" />
        </mxCell>
        <mxCell id="DrEK0OwsmpSfBRAfVQsn-37" style="edgeStyle=orthogonalEdgeStyle;rounded=0;orthogonalLoop=1;jettySize=auto;html=1;endArrow=none;endFill=0;dashed=1;strokeWidth=1;exitX=0.5;exitY=1;exitDx=0;exitDy=0;" edge="1" parent="1" source="DrEK0OwsmpSfBRAfVQsn-27">
          <mxGeometry relative="1" as="geometry">
            <mxPoint x="-360" y="1090" as="targetPoint" />
            <Array as="points">
              <mxPoint x="-300" y="1090" />
            </Array>
          </mxGeometry>
        </mxCell>
        <mxCell id="DrEK0OwsmpSfBRAfVQsn-27" value="youtube.com&lt;br&gt;Name Server" style="rounded=1;whiteSpace=wrap;html=1;absoluteArcSize=1;arcSize=14;strokeWidth=2;" vertex="1" parent="1">
          <mxGeometry x="-360" y="999.98" width="120" height="80" as="geometry" />
        </mxCell>
        <mxCell id="DrEK0OwsmpSfBRAfVQsn-29" value="" style="endArrow=none;dashed=1;html=1;strokeWidth=1;rounded=0;" edge="1" parent="1">
          <mxGeometry width="50" height="50" relative="1" as="geometry">
            <mxPoint x="-360" y="980" as="sourcePoint" />
            <mxPoint x="-300" y="980" as="targetPoint" />
          </mxGeometry>
        </mxCell>
        <mxCell id="DrEK0OwsmpSfBRAfVQsn-31" value="www.google.com" style="rounded=1;whiteSpace=wrap;html=1;absoluteArcSize=1;arcSize=14;strokeWidth=2;" vertex="1" parent="1">
          <mxGeometry x="-200" y="1120" width="120" height="80" as="geometry" />
        </mxCell>
        <mxCell id="DrEK0OwsmpSfBRAfVQsn-32" value="mail.google.com" style="rounded=1;whiteSpace=wrap;html=1;absoluteArcSize=1;arcSize=14;strokeWidth=2;" vertex="1" parent="1">
          <mxGeometry x="-360" y="1120" width="120" height="80" as="geometry" />
        </mxCell>
        <mxCell id="DrEK0OwsmpSfBRAfVQsn-36" value="" style="endArrow=none;html=1;strokeWidth=1;rounded=0;dashed=1;" edge="1" parent="1">
          <mxGeometry width="50" height="50" relative="1" as="geometry">
            <mxPoint x="-360" y="1099.7" as="sourcePoint" />
            <mxPoint x="-300" y="1099.7" as="targetPoint" />
          </mxGeometry>
        </mxCell>
        <mxCell id="DrEK0OwsmpSfBRAfVQsn-44" style="edgeStyle=orthogonalEdgeStyle;rounded=0;orthogonalLoop=1;jettySize=auto;html=1;entryX=0.5;entryY=0;entryDx=0;entryDy=0;" edge="1" parent="1" source="DrEK0OwsmpSfBRAfVQsn-41" target="1t1uXv_9IBnylGE5I8BE-29">
          <mxGeometry relative="1" as="geometry" />
        </mxCell>
        <mxCell id="DrEK0OwsmpSfBRAfVQsn-41" value="www / A / 3600 /&amp;nbsp;172.217.160.100&lt;br&gt;mail / A / 3600 /&amp;nbsp;172.217.160.101&lt;br&gt;……" style="strokeWidth=2;html=1;shape=mxgraph.flowchart.document2;whiteSpace=wrap;size=0.25;" vertex="1" parent="1">
          <mxGeometry y="1360" width="200" height="80" as="geometry" />
        </mxCell>
      </root>
    </mxGraphModel>
  </diagram>
</mxfile>
